<?xml version="1.0" encoding="utf-8"?>
<!-- Generator: Adobe Illustrator 24.0.2, SVG Export Plug-In . SVG Version: 6.00 Build 0)  -->
<svg version="1.1" id="Layer_1" xmlns="http://www.w3.org/2000/svg" xmlns:xlink="http://www.w3.org/1999/xlink" x="0px" y="0px"
	 viewBox="0 0 2400 2400" style="enable-background:new 0 0 2400 2400;" xml:space="preserve">
<style type="text/css">
	.st0{fill:none;}
	.st1{fill:#FFFFFF;}
	.st2{font-family:'hellogalleria';}
	.st3{font-size:1249.8582px;}
</style>
<g>
	<path id="SVGID_x5F_1_x5F_" class="st0" d="M2188.06,1480.69c213.08-416.1,48.5-926.16-367.61-1139.24s-926.16-48.5-1139.24,367.61
		s-48.5,926.16,367.61,1139.24S1974.98,1896.79,2188.06,1480.69z"/>
	<text>	<textPath  xlink:href="#SVGID_x5F_1_x5F_" startOffset="100.179%">
<tspan  class="st1" style="font-family:'Neuton-ExtraBold'; font-size:124.3971px; letter-spacing:450;">Web Development</tspan>	</textPath>
</text>
	<text transform="matrix(1.0903 0 0 1 118.7215 1369.6016)" class="st1 st2 st3">Deji</text>
	<path class="st1" d="M827.85,1701.66c-162.08-162.08-251.34-377.57-251.34-606.78c0-229.22,89.26-444.71,251.34-606.79
		s377.57-251.34,606.79-251.34s444.71,89.26,606.79,251.34l-16.49,16.49c-325.49-325.48-855.1-325.48-1180.59,0
		c-157.67,157.68-244.51,367.31-244.51,590.3s86.83,432.62,244.51,590.29L827.85,1701.66z"/>
</g>
</svg>
